HIERARCHY
ROOT hip
{
	OFFSET 0.000000 0.000000 0.000000 
	CHANNELS 6 Xposition Yposition Zposition Xrotation Zrotation Yrotation
	JOINT abdomen
	{
		OFFSET 0.000000 3.402643 0.000000 
		CHANNELS 3 Xrotation Zrotation Yrotation
		JOINT chest
		{
			OFFSET 0.000000 8.438565 -0.680529 
			CHANNELS 3 Xrotation Zrotation Yrotation
			JOINT neck
			{
				OFFSET 0.000000 10.207942 -0.272212 
				CHANNELS 3 Xrotation Zrotation Yrotation
				JOINT head
				{
					OFFSET 0.000000 3.130431 0.000000 
					CHANNELS 3 Xrotation Zrotation Yrotation
					End Site
					{
						OFFSET 0.000000 3.130435 0.000000 
					}
				}
			}
			JOINT lCollar
			{
				OFFSET 3.470700 6.669187 -0.816635 
				CHANNELS 3 Yrotation Zrotation Xrotation
				JOINT lShldr
				{
					OFFSET 3.198488 0.000000 0.000000 
					CHANNELS 3 Zrotation Yrotation Xrotation
					JOINT lForeArm
					{
						OFFSET 10.139888 0.000000 0.000000 
						CHANNELS 3 Yrotation Zrotation Xrotation
						JOINT lHand
						{
							OFFSET 8.370511 0.000000 0.000000 
							CHANNELS 3 Zrotation Yrotation Xrotation
							End Site
							{
								OFFSET 4.083176 0.000000 0.000000 
							}
						}
					}
				}
			}
			JOINT rCollar
			{
				OFFSET -3.470700 6.669187 -0.816635 
				CHANNELS 3 Yrotation Zrotation Xrotation
				JOINT rShldr
				{
					OFFSET -3.198488 0.000000 0.000000 
					CHANNELS 3 Zrotation Yrotation Xrotation
					JOINT rForeArm
					{
						OFFSET -10.139888 0.000000 0.000000 
						CHANNELS 3 Yrotation Zrotation Xrotation
						JOINT rHand
						{
							OFFSET -8.370511 0.000000 0.000000 
							CHANNELS 3 Zrotation Yrotation Xrotation
							End Site
							{
								OFFSET -4.083176 0.000000 0.000000 
							}
						}
					}
				}
			}
		}
	}
	JOINT lThigh
	{
		OFFSET 5.308129 -1.633274 1.361059 
		CHANNELS 3 Xrotation Zrotation Yrotation
		JOINT lShin
		{
			OFFSET -2.041588 -20.007561 0.000000 
			CHANNELS 3 Xrotation Zrotation Yrotation
			JOINT lFoot
			{
				OFFSET 0.000000 -19.190928 -1.224953 
				CHANNELS 3 Xrotation Yrotation Zrotation
				End Site
				{
					OFFSET 0.000000 -2.449906 4.627600 
				}
			}
		}
	}
	JOINT rThigh
	{
		OFFSET -5.308129 -1.633274 1.361059 
		CHANNELS 3 Xrotation Zrotation Yrotation
		JOINT rShin
		{
			OFFSET 2.041588 -20.007561 0.000000 
			CHANNELS 3 Xrotation Zrotation Yrotation
			JOINT rFoot
			{
				OFFSET 0.000000 -19.190928 -1.224953 
				CHANNELS 3 Xrotation Yrotation Zrotation
				End Site
				{
					OFFSET 0.000000 -2.449906 4.627600 
				}
			}
		}
	}
}
MOTION
Frames: 6
Frame Time: 0.016667
-0.200894 47.872330 4.236306 14.630644 7.096057 5.531767 8.255935 -1.815896 -1.358287 -0.369922 0.161634 -13.193388 21.095556 -16.579998 8.355365 -2.607121 -17.371441 23.512310 -23.410049 -10.466098 -2.468840 -41.039009 -24.240589 -56.861694 -96.616264 5.711503 12.209978 46.248970 -12.665483 -47.546963 -2.827736 8.601010 -2.397166 51.007908 -9.861779 -22.975965 46.953888 -11.238715 11.439387 -68.588783 3.276061 -73.296890 0.819649 3.756353 -0.702077 16.838142 -0.712905 -0.755957 -3.718197 -3.349652 -1.745286 -32.016830 -8.134788 16.886454 43.323631 -0.966671 1.706755 -22.196203 -1.050080 8.282288 
-0.427556 48.220554 4.545960 14.493766 5.390701 3.443749 8.255935 -1.815896 -1.358287 -0.185967 0.864588 -13.370685 20.788794 -16.148218 9.203382 -2.972507 -17.224930 24.174726 -23.346609 -10.065619 -2.071703 -43.169674 -20.659267 -52.720478 -92.546593 6.109792 12.046030 47.053524 -11.386018 -51.155090 -2.856254 9.119020 -2.202920 50.044636 -9.258499 -25.771877 47.487583 -11.233623 11.481892 -71.333076 4.120339 -72.113724 0.488022 5.279339 -1.463899 18.430464 -0.703337 -0.826398 -2.379736 -0.488372 -1.870690 -30.512312 -6.904639 13.312752 39.788918 -0.871580 1.961031 -20.217016 2.938019 6.950678 
-0.653912 48.519718 4.881296 14.142391 3.934293 1.449276 8.255935 -1.815896 -1.358287 0.170539 1.037136 -13.009888 21.031610 -15.435548 10.042610 -2.832492 -16.698418 24.617813 -23.079697 -9.873214 -1.616857 -44.887432 -17.303043 -47.874470 -88.006454 6.689319 11.814501 46.540161 -10.478596 -52.956306 -2.736404 9.456721 -1.839186 49.342937 -9.024992 -29.088249 49.446362 -11.047211 11.735699 -71.659660 4.775314 -70.767601 0.322573 6.536792 -1.544570 20.335388 -0.703335 -0.893048 -0.248126 1.728621 -1.786312 -28.539139 -5.302546 9.886323 36.442711 -1.197208 1.738489 -18.270620 6.220325 6.367554 
-0.891030 48.789505 5.245565 13.437781 2.617027 -0.634995 8.255935 -1.815896 -1.358287 0.521049 1.220504 -12.473444 21.297228 -14.806320 11.145681 -2.503449 -15.983270 25.002405 -22.484884 -10.006981 -1.284101 -46.296547 -13.902151 -43.186207 -83.634575 7.007626 11.556697 45.238972 -9.974196 -53.660042 -2.264071 9.436823 -1.504646 48.670330 -8.807912 -32.587151 52.101398 -10.739388 11.917979 -70.918526 4.970730 -69.287117 0.165978 7.774284 -1.454872 22.799959 -0.713379 -0.890150 1.724342 3.902935 -2.149048 -26.203892 -3.886617 7.087164 33.105892 -1.196377 1.823553 -16.418575 9.814300 5.621294 
-1.132667 49.012421 5.624394 12.625094 1.414274 -2.842617 8.255935 -1.815896 -1.358287 0.880046 1.214207 -11.760308 21.689770 -14.194681 12.433962 -2.005235 -15.092809 25.386633 -21.726105 -10.119910 -0.967469 -46.627552 -10.763335 -38.102776 -79.252068 7.413599 11.272000 43.676392 -9.730381 -52.460110 -1.610609 9.437687 -1.139382 47.650249 -8.589870 -35.712036 55.288826 -10.427222 12.110568 -69.620949 5.310620 -68.399330 -0.009009 8.840521 -1.376665 25.952833 -0.719415 -1.046288 3.840502 5.977422 -2.260296 -23.468477 -2.675470 4.595252 29.925316 -0.922624 1.953546 -14.471735 13.037445 5.388352 
-1.372569 49.179806 6.009333 11.696800 0.350129 -5.175864 8.255935 -1.815896 -1.358287 1.397435 1.044700 -11.056388 22.490837 -13.663269 13.441758 -1.508650 -14.200375 25.600445 -20.932230 -10.464980 -0.556086 -46.642700 -7.377532 -33.156670 -75.219749 7.724241 10.812342 41.649414 -9.859527 -50.259754 -0.972406 9.259210 -0.634042 46.600491 -8.159202 -38.470322 58.492573 -10.132683 12.461967 -67.950279 5.642199 -67.860313 -0.194741 9.697258 -1.147837 29.295519 -0.539715 -1.139257 5.790435 7.353436 -2.259313 -21.074961 -0.918240 1.722579 27.241833 -1.661047 2.570809 -12.557713 16.020113 4.128266 
